<svg version="1.1" xmlns="http://www.w3.org/2000/svg" xmlns:xlink="http://www.w3.org/1999/xlink" viewBox="0 0 172 172"><g fill="none" fill-rule="nonzero" stroke="none" stroke-width="1" stroke-linecap="butt" stroke-linejoin="miter" stroke-miterlimit="10" stroke-dasharray="" stroke-dashoffset="0" font-family="none" font-weight="none" font-size="none" text-anchor="none" style="mix-blend-mode: normal"><path d="M0,172v-172h172v172z" fill="#3dcfd3"></path><g fill="#000000"><path d="M59.125,15.78906c-6.30521,0.00704 -11.41484,5.11666 -11.42187,11.42188v4.70313h54.75781c1.1132,0 2.01563,0.90243 2.01563,2.01563c0,1.1132 -0.90243,2.01562 -2.01562,2.01562h-54.75781v96.07813h76.59375v-96.07812h-4.70312c-1.1132,0 -2.01562,-0.90243 -2.01562,-2.01562c0,-1.1132 0.90243,-2.01562 2.01563,-2.01562h4.70313v-4.70313c-0.00704,-6.30521 -5.11666,-11.41484 -11.42187,-11.42187zM109.07668,31.91406h3.73468c1.1132,0 2.01563,0.90243 2.01563,2.01563c0,1.1132 -0.90243,2.01562 -2.01563,2.01562h-3.73468c-1.1132,0 -2.01562,-0.90243 -2.01562,-2.01562c0,-1.1132 0.90243,-2.01562 2.01563,-2.01562zM160.16411,46.57787c-2.83369,-0.03851 -5.35827,1.78324 -6.21484,4.48463h-8.84001c-3.33738,0.02947 -6.21214,2.35997 -6.93133,5.61908c-0.30876,1.41052 -1.54817,2.42271 -2.99194,2.44342h-8.87347v4.03125h8.87347c3.33723,-0.02927 6.212,-2.35951 6.93134,-5.61842c0.3085,-1.41078 1.54797,-2.42329 2.99194,-2.44408h8.84001c0.96573,3.07055 4.02616,4.97827 7.20825,4.49325c3.18208,-0.48502 5.5352,-3.21788 5.54229,-6.4367c-0.00078,-3.61521 -2.92054,-6.55139 -6.53569,-6.57243zM11.83589,46.58968c-3.60992,0 -6.53635,2.92642 -6.53635,6.53635c0,3.60992 2.92642,6.53635 6.53635,6.53635c2.84872,0.00291 5.36765,-1.84879 6.21484,-4.56862h8.84001c1.44397,0.02078 2.68345,1.03329 2.99194,2.44408c0.71934,3.25892 3.5941,5.58915 6.93134,5.61842h8.87347v-4.03125h-8.87347c-1.44377,-0.02071 -2.68318,-1.0329 -2.99194,-2.44342c-0.71919,-3.25911 -3.59395,-5.58961 -6.93134,-5.61908h-8.84001c-0.85751,-2.6991 -3.38314,-4.5168 -6.21484,-4.47282zM149.38458,64.33203c-2.84281,-0.01726 -5.36407,1.82258 -6.21484,4.53516h-1.63113c-3.5575,0.00478 -6.76195,2.1517 -8.11958,5.43996c-0.73422,1.78398 -2.46954,2.95112 -4.39868,2.95848h-3.37972v4.03125h3.37972c3.55734,-0.00467 6.76175,-2.1513 8.11958,-5.4393c0.73409,-1.78417 2.46941,-2.95158 4.39868,-2.95914h1.63113c0.85478,2.70504 3.37813,4.53282 6.21484,4.50169c3.60866,0 6.53405,-2.92539 6.53405,-6.53405c0,-3.60866 -2.92539,-6.53405 -6.53405,-6.53405zM22.35428,64.334c-3.50268,0.13762 -6.27205,3.01587 -6.27455,6.52126c0.00239,3.61102 2.92469,6.54006 6.53569,6.55078c2.83789,0.029 5.36105,-1.80103 6.21484,-4.5076h1.63113c1.92928,0.00756 3.66459,1.17496 4.39868,2.95914c1.35784,3.288 4.56225,5.43463 8.11958,5.4393h3.37972v-4.03125h-3.37972c-1.92914,-0.00736 -3.66446,-1.17451 -4.39868,-2.95848c-1.35763,-3.28826 -4.56209,-5.43518 -8.11958,-5.43996h-1.63113c-0.89527,-2.79423 -3.5441,-4.64841 -6.47598,-4.53319zM35.45453,86.58658c-3.38453,-0.01258 -6.50194,1.83654 -8.11368,4.8127c-0.9127,1.66446 -2.66987,2.68892 -4.56796,2.66322h-3.21109c-0.87814,-2.35156 -3.31516,-4.37309 -6.18138,-4.37309c-3.36155,-0.00462 -6.17713,2.54406 -6.50622,5.88946c-0.32909,3.3454 1.93589,6.39386 5.23391,7.04435c3.29801,0.65049 6.55088,-1.30965 7.51669,-4.52947h3.1481c3.37934,0.0265 6.49856,-1.81043 8.11433,-4.77858c0.90695,-1.66917 2.6585,-2.70417 4.55812,-2.69341l10.77756,0.06693l0.01968,-4.02403zM136.53563,86.59051l-10.77756,0.06693l0.01903,4.03847l10.76837,-0.04724c1.89863,-0.0251 3.656,1.00009 4.56862,2.66519c1.61548,2.96797 4.73397,4.80527 8.11302,4.77989h3.1481c0.9659,3.21932 4.21829,5.17912 7.51589,4.52886c3.2976,-0.65026 5.56254,-3.69802 5.23402,-7.04303c-0.32852,-3.345 -3.14313,-5.89389 -6.50423,-5.89018c-2.86756,0 -5.30458,2.02153 -6.18138,4.37309h-3.21109c-1.89831,0.02587 -3.65575,-0.99861 -4.56862,-2.66322c-1.61457,-2.97797 -4.73672,-4.826 -8.12417,-4.80876zM42.8819,105.14844c-4.53507,0.00532 -8.53083,2.98188 -9.83405,7.32567c-0.79166,2.63314 -3.21726,4.43486 -5.96683,4.43214h-3.42302c-0.96573,-3.07055 -4.02616,-4.97827 -7.20825,-4.49325c-3.18208,0.48502 -5.5352,3.21788 -5.54229,6.4367c0.00078,3.61521 2.92054,6.55139 6.53569,6.57243c2.83369,0.03851 5.35827,-1.78324 6.21484,-4.48463h3.42302c4.53531,-0.00503 8.53142,-2.98165 9.8347,-7.32567c0.7916,-2.63291 3.21684,-4.43457 5.96617,-4.43214h2.8056v-4.03125zM126.3125,105.14844v4.03125h2.8056c2.74933,-0.00243 5.17458,1.79924 5.96617,4.43214c1.30329,4.34402 5.29939,7.32064 9.8347,7.32567h3.42302c0.85751,2.6991 3.38314,4.5168 6.21484,4.47282c3.60992,0 6.53635,-2.92642 6.53635,-6.53635c0,-3.60992 -2.92642,-6.53635 -6.53635,-6.53635c-2.84872,-0.00291 -5.36765,1.84879 -6.21484,4.56862h-3.42302c-2.74957,0.00272 -5.17516,-1.799 -5.96683,-4.43214c-1.30322,-4.34379 -5.29898,-7.32035 -9.83405,-7.32567zM47.70313,136.05469v8.73438c0.00704,6.30521 5.11666,11.41484 11.42188,11.42188h53.75c6.30521,-0.00704 11.41484,-5.11666 11.42188,-11.42187v-8.73437zM86,139.07813c3.8962,0 7.05469,3.15849 7.05469,7.05469c0,3.8962 -3.15849,7.05469 -7.05469,7.05469c-3.8962,0 -7.05469,-3.15849 -7.05469,-7.05469c0.00426,-3.89443 3.16026,-7.05043 7.05469,-7.05469zM86,143.10938c-1.6698,0 -3.02344,1.35364 -3.02344,3.02344c0,1.6698 1.35364,3.02344 3.02344,3.02344c1.6698,0 3.02344,-1.35364 3.02344,-3.02344c0,-1.6698 -1.35364,-3.02344 -3.02344,-3.02344z"></path></g></g></svg>